# xmcd
#
# Track frame offsets:
# 150
# 13622
# 24364
# 39822
# 48145
# 57317
# 100661
# 122229
# 140696
# 154407
#
# Disc length: 2387 seconds
#
# Revision: 0
# Processed by: cddbd v1.4PL0 Copyright (c) Steve Scherf et al.
# Submitted via: Audion 3.0.2 (http://www.panic.com/audion/)
#
DISCID=7909510a
DTITLE=Landing - 2002 Tour Ep
DYEAR=1900
DGENRE=
TTITLE0=Not See Through
TTITLE1=It Looked Like Fire
TTITLE2=I Missed It
TTITLE3=Motionless
TTITLE4=Fluttering Wings
TTITLE5=Meisha
TTITLE6=I'd Feel the Same
TTITLE7=Tempestuous Sea
TTITLE8=When the Sun Lights the Sky
TTITLE9=Toughts are Raining Down
EXTD=
EXTT0=
EXTT1=
EXTT2=
EXTT3=
EXTT4=
EXTT5=
EXTT6=
EXTT7=
EXTT8=
EXTT9=
PLAYORDER=
